<svg width="199" height="44" viewBox="0 0 199 44" fill="none" xmlns="http://www.w3.org/2000/svg">
<mask id="mask0_152_4" style="mask-type:luminance" maskUnits="userSpaceOnUse" x="0" y="0" width="69" height="32">
<path d="M0 0H69V31.5471H0V0Z" fill="white"/>
</mask>
<g mask="url(#mask0_152_4)">
<mask id="mask1_152_4" style="mask-type:luminance" maskUnits="userSpaceOnUse" x="-5" y="-9" width="79" height="66">
<path d="M-4.96375 21.8205L54.5528 -8.38403L73.7428 26.0687L14.2262 56.2721L-4.96375 21.8205Z" fill="white"/>
</mask>
<g mask="url(#mask1_152_4)">
<mask id="mask2_152_4" style="mask-type:luminance" maskUnits="userSpaceOnUse" x="-5" y="-9" width="79" height="66">
<path d="M-4.96375 21.8205L54.5528 -8.38403L73.7428 26.0687L14.2262 56.2721L-4.96375 21.8205Z" fill="white"/>
</mask>
<g mask="url(#mask2_152_4)">
<path d="M58.2343 0.186895L25.0956 6.61868C24.8634 6.66408 24.6618 6.76677 24.4931 6.92459L0.373422 29.5504C0.280558 29.6369 0.204682 29.7353 0.145792 29.8455C0.0869033 29.9558 0.0472662 30.0714 0.0268816 30.1936C0.00762946 30.3157 0.0087618 30.4379 0.0302791 30.56C0.0517964 30.6822 0.0925656 30.7979 0.15372 30.907C0.214874 31.0162 0.291883 31.1135 0.385879 31.1989C0.479875 31.2843 0.585196 31.3524 0.701842 31.4054C0.819621 31.4583 0.941929 31.4918 1.07103 31.507C1.20014 31.5221 1.32697 31.5167 1.45494 31.4918L34.5937 25.0601C34.8259 25.0147 35.0274 24.913 35.1962 24.7541L52.8086 8.23257L60.6352 22.283C60.5095 22.3468 60.3996 22.429 60.3045 22.5306C60.2094 22.6311 60.1358 22.7446 60.0837 22.8711C60.0304 22.9976 60.0021 23.1284 59.9987 23.2635C59.9953 23.3997 60.0157 23.5316 60.061 23.6602L62.3826 30.2714C62.4109 30.3492 62.4472 30.4249 62.4925 30.4963C62.5366 30.5676 62.5887 30.6335 62.6487 30.6941C62.7088 30.7546 62.7756 30.8076 62.8469 30.8551C62.9194 30.9016 62.9964 30.9405 63.0768 30.9708C63.1584 31.0022 63.241 31.0238 63.3271 31.0378C63.4132 31.0508 63.5004 31.0551 63.5876 31.0508C63.6736 31.0465 63.7597 31.0324 63.8435 31.0108C63.9273 30.9881 64.0077 30.9578 64.0847 30.9178L68.327 28.7656C68.4029 28.7267 68.4754 28.6802 68.5411 28.6262C68.6079 28.5721 68.6668 28.5127 68.72 28.4457C68.7721 28.3797 68.8174 28.3084 68.8536 28.2327C68.8899 28.157 68.917 28.0792 68.9363 27.9971C68.9544 27.916 68.9635 27.8338 68.9635 27.7506C68.9635 27.6674 68.9533 27.5852 68.9352 27.5041C68.9159 27.4231 68.8876 27.3441 68.8514 27.2696C68.814 27.1939 68.7687 27.1225 68.7166 27.0566L64.2727 21.522C64.1866 21.415 64.0836 21.3242 63.9635 21.2518C63.8435 21.1783 63.7144 21.1275 63.5751 21.0994C63.4358 21.0702 63.2965 21.0648 63.1561 21.0832C63.0145 21.1026 62.882 21.1437 62.7563 21.2075L54.5956 6.55598L59.3158 2.12832C59.4087 2.04184 59.4846 1.94347 59.5435 1.83321C59.6024 1.72296 59.642 1.60729 59.6612 1.48514C59.6816 1.36299 59.6805 1.24084 59.659 1.11869C59.6375 0.996542 59.5956 0.880879 59.5355 0.7717C59.4744 0.662522 59.3974 0.565235 59.3034 0.479838C59.2094 0.394441 59.1041 0.32634 58.9874 0.273372C58.8696 0.220405 58.7473 0.186895 58.6182 0.171761C58.4891 0.157708 58.3623 0.162033 58.2343 0.186895Z" fill="#FDF9F3"/>
</g>
</g>
</g>
<mask id="mask3_152_4" style="mask-type:luminance" maskUnits="userSpaceOnUse" x="17" y="14" width="40" height="30">
<path d="M17.6849 14.3901H56.2438V44.0001H17.6849V14.3901Z" fill="white"/>
</mask>
<g mask="url(#mask3_152_4)">
<mask id="mask4_152_4" style="mask-type:luminance" maskUnits="userSpaceOnUse" x="-5" y="-9" width="79" height="66">
<path d="M-4.96362 21.8202L54.553 -8.38428L73.7429 26.0684L14.2263 56.2719L-4.96362 21.8202Z" fill="white"/>
</mask>
<g mask="url(#mask4_152_4)">
<mask id="mask5_152_4" style="mask-type:luminance" maskUnits="userSpaceOnUse" x="-5" y="-9" width="79" height="66">
<path d="M-4.96362 21.8202L54.553 -8.38428L73.7429 26.0684L14.2263 56.2719L-4.96362 21.8202Z" fill="white"/>
</mask>
<g mask="url(#mask5_152_4)">
<path d="M36.0457 26.9724C35.74 27.1292 35.4161 27.2394 35.0752 27.3054L17.7086 30.6769L24.0867 42.1298C26.0233 45.6062 35.1499 43.0054 42.8112 39.1182C50.4713 35.2311 57.8347 29.463 55.8971 25.9866L49.5189 14.5337L36.8804 26.3898C36.6324 26.6222 36.3538 26.8168 36.0457 26.9724Z" fill="#FDF9F3"/>
</g>
</g>
</g>
<path d="M79.39 26.19V21.33H77.2V18H79.39V12H82.93V18H85.27V21.33H82.93V26.19C82.93 27.09 83 27.77 83.14 28.23C83.28 28.69 83.47 29.01 83.71 29.19C83.97 29.35 84.25 29.44 84.55 29.46C84.87 29.48 85.19 29.49 85.51 29.49H86.02V33.06H85.57C84.47 33.06 83.53 32.98 82.75 32.82C81.97 32.66 81.33 32.35 80.83 31.89C80.33 31.41 79.96 30.72 79.72 29.82C79.5 28.9 79.39 27.69 79.39 26.19ZM102.791 26.88H92.2907C92.3707 27.78 92.7107 28.47 93.3107 28.95C93.9107 29.43 94.6507 29.71 95.5307 29.79C96.4107 29.85 97.3107 29.73 98.2307 29.43C99.1707 29.11 100.011 28.63 100.751 27.99L102.731 30.72C101.631 31.64 100.511 32.3 99.3707 32.7C98.2507 33.08 97.1407 33.27 96.0407 33.27C93.5007 33.27 91.5907 32.56 90.3107 31.14C89.0507 29.72 88.4207 27.71 88.4207 25.11C88.4207 23.63 88.7107 22.34 89.2907 21.24C89.8907 20.14 90.7307 19.29 91.8107 18.69C92.9107 18.09 94.2007 17.8 95.6807 17.82C98.9207 17.86 101.081 19.13 102.161 21.63C102.461 22.35 102.651 23.14 102.731 24C102.831 24.86 102.851 25.82 102.791 26.88ZM96.0107 21.18C94.7907 21.18 93.8607 21.51 93.2207 22.17C92.6007 22.83 92.2907 23.56 92.2907 24.36H99.7007C99.7007 23.54 99.3807 22.81 98.7407 22.17C98.1207 21.51 97.2107 21.18 96.0107 21.18ZM109.886 33.15C108.366 33.07 107.216 32.64 106.436 31.86C105.656 31.06 105.266 29.96 105.266 28.56C105.266 27.54 105.526 26.67 106.046 25.95C106.566 25.21 107.256 24.63 108.116 24.21C108.976 23.79 109.926 23.53 110.966 23.43C112.026 23.33 113.096 23.4 114.176 23.64V22.71C114.176 22.07 113.916 21.61 113.396 21.33C112.876 21.05 112.236 20.92 111.476 20.94C110.736 20.96 109.986 21.11 109.226 21.39C108.486 21.65 107.886 22.03 107.426 22.53L105.416 20.34C106.176 19.6 107.076 19.02 108.116 18.6C109.156 18.18 110.226 17.94 111.326 17.88C112.446 17.82 113.496 17.95 114.476 18.27C115.476 18.59 116.296 19.11 116.936 19.83C117.436 20.39 117.716 21.13 117.776 22.05C117.836 22.97 117.866 23.98 117.866 25.08V33H114.206V31.62C113.586 32.2 112.896 32.61 112.136 32.85C111.376 33.07 110.626 33.17 109.886 33.15ZM114.086 28.77V26.19C112.006 26.03 110.556 26.16 109.736 26.58C108.936 27 108.536 27.65 108.536 28.53C108.536 29.09 108.726 29.5 109.106 29.76C109.506 30 109.996 30.12 110.576 30.12C111.176 30.1 111.786 29.98 112.406 29.76C113.046 29.52 113.606 29.19 114.086 28.77ZM133.309 30.93C132.309 31.89 131.229 32.55 130.069 32.91C128.909 33.27 127.769 33.36 126.649 33.18C125.529 33 124.509 32.58 123.589 31.92C122.669 31.26 121.929 30.39 121.369 29.31C120.829 28.23 120.559 26.96 120.559 25.5C120.559 24 120.829 22.71 121.369 21.63C121.909 20.53 122.639 19.67 123.559 19.05C124.479 18.41 125.499 18.02 126.619 17.88C127.739 17.74 128.889 17.87 130.069 18.27C131.249 18.65 132.359 19.32 133.399 20.28L130.999 22.83C130.399 22.11 129.709 21.66 128.929 21.48C128.169 21.3 127.419 21.35 126.679 21.63C125.959 21.91 125.359 22.39 124.879 23.07C124.419 23.73 124.189 24.54 124.189 25.5C124.189 26.54 124.419 27.4 124.879 28.08C125.359 28.76 125.959 29.24 126.679 29.52C127.399 29.78 128.159 29.82 128.959 29.64C129.759 29.44 130.489 28.99 131.149 28.29L133.309 30.93ZM149.114 33H145.514V24.36C145.514 23.34 145.244 22.6 144.704 22.14C144.184 21.68 143.464 21.45 142.544 21.45C141.704 21.45 141.024 21.72 140.504 22.26C140.004 22.78 139.754 23.33 139.754 23.91V33H136.154V12H139.754V18.81C140.234 18.41 140.804 18.15 141.464 18.03C142.144 17.89 142.844 17.85 143.564 17.91C145.384 18.13 146.764 18.83 147.704 20.01C148.644 21.17 149.114 22.62 149.114 24.36V33ZM152.606 33.18C152.046 33.16 151.566 32.97 151.166 32.61C150.786 32.23 150.606 31.76 150.626 31.2C150.646 30.66 150.836 30.21 151.196 29.85C151.576 29.49 152.046 29.3 152.606 29.28C153.146 29.26 153.596 29.44 153.956 29.82C154.316 30.2 154.506 30.66 154.526 31.2C154.546 31.76 154.366 32.24 153.986 32.64C153.606 33.02 153.146 33.2 152.606 33.18ZM180.519 33H176.919V24.36C176.919 23.3 176.659 22.56 176.139 22.14C175.639 21.7 174.959 21.48 174.099 21.48C173.219 21.48 172.449 21.7 171.789 22.14C171.149 22.56 170.829 23.3 170.829 24.36V33H167.349V24.36C167.349 23.3 167.059 22.56 166.479 22.14C165.919 21.72 165.249 21.51 164.469 21.51C163.909 21.51 163.369 21.6 162.849 21.78C162.349 21.96 161.939 22.26 161.619 22.68C161.299 23.08 161.139 23.64 161.139 24.36V33H157.539V18H161.139V19.14C161.619 18.66 162.169 18.33 162.789 18.15C163.429 17.95 164.059 17.85 164.679 17.85C165.599 17.85 166.469 18.02 167.289 18.36C168.129 18.68 168.799 19.17 169.299 19.83C169.819 19.17 170.559 18.68 171.519 18.36C172.479 18.02 173.409 17.85 174.309 17.85C175.429 17.85 176.459 18.13 177.399 18.69C178.339 19.23 179.089 19.99 179.649 20.97C180.229 21.93 180.519 23.06 180.519 24.36V33ZM197.302 26.88H186.802C186.882 27.78 187.222 28.47 187.822 28.95C188.422 29.43 189.162 29.71 190.042 29.79C190.922 29.85 191.822 29.73 192.742 29.43C193.682 29.11 194.522 28.63 195.262 27.99L197.242 30.72C196.142 31.64 195.022 32.3 193.882 32.7C192.762 33.08 191.652 33.27 190.552 33.27C188.012 33.27 186.102 32.56 184.822 31.14C183.562 29.72 182.932 27.71 182.932 25.11C182.932 23.63 183.222 22.34 183.802 21.24C184.402 20.14 185.242 19.29 186.322 18.69C187.422 18.09 188.712 17.8 190.192 17.82C193.432 17.86 195.592 19.13 196.672 21.63C196.972 22.35 197.162 23.14 197.242 24C197.342 24.86 197.362 25.82 197.302 26.88ZM190.522 21.18C189.302 21.18 188.372 21.51 187.732 22.17C187.112 22.83 186.802 23.56 186.802 24.36H194.212C194.212 23.54 193.892 22.81 193.252 22.17C192.632 21.51 191.722 21.18 190.522 21.18Z" fill="#FDF9F3"/>
</svg>
