<svg width="82" height="81" viewBox="0 0 82 81" fill="none" xmlns="http://www.w3.org/2000/svg">
<path d="M82 40.5C82 62.8675 63.6437 81 41 81C18.3563 81 0 62.8675 0 40.5C0 18.1325 18.3563 0 41 0C63.6437 0 82 18.1325 82 40.5Z" fill="#FF9740"/>
<path d="M29.314 22.2299C25.758 22.033 22.278 23.2642 19.698 25.9693C14.5379 31.3795 14.9979 40.5837 20.7379 46.5969L41.438 68.284L62.1339 46.5969C67.874 40.5795 68.334 31.3795 63.174 25.9693C58.014 20.559 49.242 21.049 43.502 27.0664L41.438 29.2314L39.37 27.0664C36.502 24.0556 32.874 22.4267 29.314 22.2299Z" fill="#FDF9F3"/>
</svg>
